HIERARCHY
ROOT Hips
{
	OFFSET 0.000000 0.000000 0.000000 
	CHANNELS 6 Xposition Yposition Zposition Zrotation Yrotation Xrotation
	JOINT LeftUpLeg
	{
		OFFSET 1.363060 -1.794630 0.839290 
		CHANNELS 3 Zrotation Yrotation Xrotation
		JOINT LeftLeg
		{
			OFFSET 2.448110 -6.726130 0.000000 
			CHANNELS 3 Zrotation Yrotation Xrotation
			JOINT LeftFoot
			{
				OFFSET 2.562200 -7.039590 0.000000 
				CHANNELS 3 Zrotation Yrotation Xrotation
				JOINT LeftToeBase
				{
					OFFSET 0.157640 -0.433110 2.322550 
					CHANNELS 3 Zrotation Yrotation Xrotation
					End Site
					{
						OFFSET 0.000000 0.000000 0.000000 
					}
				}
			}
		}
	}
	JOINT RightUpLeg
	{
		OFFSET -1.305520 -1.794630 0.839290 
		CHANNELS 3 Zrotation Yrotation Xrotation
		JOINT RightLeg
		{
			OFFSET -2.542530 -6.985550 0.000000 
			CHANNELS 3 Zrotation Yrotation Xrotation
			JOINT RightFoot
			{
				OFFSET -2.568260 -7.056230 0.000000 
				CHANNELS 3 Zrotation Yrotation Xrotation
				JOINT RightToeBase
				{
					OFFSET -0.164730 -0.452590 2.363150 
					CHANNELS 3 Zrotation Yrotation Xrotation
					End Site
					{
						OFFSET 0.000000 0.000000 0.000000 
					}
				}
			}
		}
	}
	JOINT Spine
	{
		OFFSET 0.028270 2.035590 -0.193380 
		CHANNELS 3 Zrotation Yrotation Xrotation
		JOINT Spine1
		{
			OFFSET 0.056720 2.048850 -0.042750 
			CHANNELS 3 Zrotation Yrotation Xrotation
			JOINT Neck1
			{
				OFFSET -0.054170 1.746240 0.172020 
				CHANNELS 3 Zrotation Yrotation Xrotation
				JOINT Head
				{
					OFFSET 0.104070 1.761360 -0.123970 
					CHANNELS 3 Zrotation Yrotation Xrotation
					End Site
					{
						OFFSET 0.000000 0.000000 0.000000 
					}
				}
			}
			JOINT LeftArm
			{
				OFFSET 3.362410 1.200890 -0.311210 
				CHANNELS 3 Zrotation Yrotation Xrotation
				JOINT LeftForeArm
				{
					OFFSET 4.983000 -0.000000 -0.000000 
					CHANNELS 3 Zrotation Yrotation Xrotation
					JOINT LeftHand
					{
						OFFSET 3.483560 -0.000000 -0.000000 
						CHANNELS 3 Zrotation Yrotation Xrotation
						JOINT LeftHandIndex1
						{
							OFFSET 0.715260 -0.000000 -0.000000 
							CHANNELS 3 Zrotation Yrotation Xrotation
							End Site
							{
								OFFSET 0.000000 0.000000 0.000000 
							}
						}
					}
				}
			}
			JOINT RightArm
			{
				OFFSET -3.136600 1.374050 -0.404650 
				CHANNELS 3 Zrotation Yrotation Xrotation
				JOINT RightForeArm
				{
					OFFSET -5.241900 -0.000000 -0.000000 
					CHANNELS 3 Zrotation Yrotation Xrotation
					JOINT RightHand
					{
						OFFSET -3.444170 -0.000000 -0.000000 
						CHANNELS 3 Zrotation Yrotation Xrotation
						JOINT RightHandIndex1
						{
							OFFSET -0.622530 -0.000000 -0.000000 
							CHANNELS 3 Zrotation Yrotation Xrotation
							End Site
							{
								OFFSET 0.000000 0.000000 0.000000 
							}
						}
					}
				}
			}
		}
	}
}
MOTION
Frames: 18
Frame Time: 0.041667
9.411651 17.876039 -8.859452 -172.874213 -0.563427 -176.017774 -6.499391 -3.129624 -16.487335 1.519157 10.228188 27.956297 0.779968 -7.855675 -2.439625 0.234000 3.113100 8.593900 25.064823 -1.204315 -8.229736 -0.897015 -8.876189 22.763240 -1.098680 5.032126 -6.913021 -0.614500 -5.016900 13.956900 2.261230 1.357230 -3.466293 2.515438 0.646860 -0.747234 2.333710 -1.560180 13.303157 2.131900 -1.782500 10.021700 -90.603562 4.221751 27.124983 14.579193 -25.255622 -3.332234 0.110766 0.552147 -0.929963 -7.125000 0.000000 0.000000 79.508563 4.972973 19.104033 -17.742117 26.934516 -4.754639 0.326379 -0.077070 -13.521103 7.125000 0.000000 0.000000 
9.400022 17.861276 -8.909707 -172.669107 -0.606555 -176.112090 -6.305750 -3.006019 -16.342813 1.537999 10.254029 28.023715 0.818512 -8.115816 -2.917265 0.179500 2.729000 7.525200 25.282119 -1.287532 -7.907615 -0.885391 -8.857422 22.683735 -1.091623 4.937280 -7.043293 -0.556400 -4.778200 13.277000 2.287050 1.260028 -3.431830 2.510615 0.595293 -0.637411 2.478360 -1.628018 13.248293 2.192300 -1.786100 10.002200 -90.525599 4.210248 27.246609 14.357084 -24.973310 -3.252644 0.132953 0.549593 -1.123462 -7.125000 0.000000 0.000000 79.758621 4.964286 18.824787 -17.584614 26.741706 -4.679722 0.327507 -0.083485 -13.429194 7.125000 0.000000 0.000000 
9.387787 17.854097 -8.958445 -172.686663 -0.563037 -176.117984 -6.354573 -2.883556 -16.248309 1.545335 10.262295 28.037393 0.852062 -8.540260 -3.107267 0.163700 2.606500 7.185200 25.254926 -1.071798 -7.611256 -0.882007 -8.863687 22.688289 -1.056170 4.609285 -7.192695 -0.477000 -4.429400 12.287900 2.292069 1.162677 -3.449817 2.574315 0.546233 -0.671403 2.636436 -1.575074 13.248684 2.279900 -1.750200 9.983800 -90.489894 4.227212 26.725639 13.990973 -24.487532 -3.115263 0.131688 0.547702 -0.223892 -7.125000 0.000000 0.000000 79.999373 4.640544 18.752844 -17.567215 26.722713 -4.671177 0.339452 -0.084652 -13.379244 7.125000 0.000000 0.000000 
9.378889 17.855614 -9.007689 -172.792388 -0.464584 -176.121086 -6.526798 -2.625883 -16.108997 1.528579 10.235206 27.936722 0.851066 -8.791377 -2.795981 0.215600 2.989200 8.248600 25.146287 -0.575012 -7.290906 -0.896162 -8.917864 22.835239 -1.016682 4.191637 -7.529184 -0.445600 -4.282900 11.873900 2.279639 1.122457 -3.484807 2.635748 0.527060 -0.743383 2.717578 -1.501046 13.385489 2.316900 -1.718000 10.074900 -90.445421 4.289688 26.679694 13.641535 -24.036432 -2.997948 0.139474 0.567694 -0.856696 -7.125000 0.000000 0.000000 80.261096 4.224276 18.539706 -17.632662 26.801797 -4.701445 0.346891 -0.080770 -13.234599 7.125000 0.000000 0.000000 
9.369991 17.853996 -9.064314 -173.165240 -0.327867 -176.154819 -7.006482 -2.343544 -15.862460 1.500229 10.214273 27.824774 0.842766 -8.813213 -2.722718 0.274900 3.372500 9.317700 24.704655 -0.240683 -6.939038 -0.914201 -8.978214 22.996033 -1.009405 4.025053 -7.826463 -0.491900 -4.497000 12.479400 2.233426 1.060814 -3.453585 2.753135 0.505181 -0.571068 2.766734 -1.477123 13.477862 2.330500 -1.699400 10.172200 -90.418989 4.289144 26.889364 13.502766 -23.882753 -2.963508 0.148403 0.593888 -1.936574 -7.125000 0.000000 0.000000 80.503909 4.173849 18.353105 -17.594604 26.746046 -4.678533 0.351786 -0.057738 -13.013247 7.125000 0.000000 0.000000 
9.355632 17.848940 -9.119929 -173.689835 -0.176412 -176.208041 -7.658124 -2.139045 -15.622518 1.478912 10.217527 27.775328 0.844509 -8.794698 -3.004074 0.208400 2.939300 8.109900 24.083982 -0.014534 -6.562739 -0.925100 -9.019227 23.101090 -0.997433 3.854503 -8.020276 -0.525400 -4.645400 12.899800 2.180357 1.037584 -3.412293 2.942055 0.681269 -0.421400 2.738186 -1.428838 13.432260 2.285000 -1.660800 10.141500 -90.447842 4.189679 25.446896 13.503724 -23.888654 -2.964009 0.089097 0.606417 1.757570 -7.125000 0.000000 0.000000 80.727814 4.176155 18.240549 -17.461085 26.570484 -4.609441 0.352500 -0.037536 -13.124723 7.125000 0.000000 0.000000 
9.341678 17.846918 -9.160578 -173.742795 -0.166931 -176.203216 -7.779096 -1.932350 -15.584574 1.470131 10.202224 27.720747 0.833360 -8.907276 -2.643837 0.321500 3.644800 10.079400 24.017133 0.199405 -6.366700 -0.940409 -9.065336 23.230575 -0.979623 3.642987 -8.258983 -0.512900 -4.590600 12.744300 2.193813 0.974146 -3.430163 3.044007 0.647901 -0.477572 2.767295 -1.441326 13.460294 2.295400 -1.666500 10.166100 -90.468289 4.177525 24.669607 13.206430 -23.472701 -2.848411 0.093943 0.582619 3.184575 -7.125000 0.000000 0.000000 80.868595 3.966097 18.168890 -17.346746 26.426292 -4.553980 0.355556 -0.040494 -13.470964 7.125000 0.000000 0.000000 
9.328027 17.843176 -9.203552 -173.692563 -0.182764 -176.095702 -7.783878 -1.818852 -15.580168 1.460993 10.178056 27.651014 0.830219 -9.073734 -2.353800 0.554400 4.769400 13.252000 24.014797 0.195958 -6.401885 -0.965611 -9.122836 23.401222 -1.009847 3.774304 -8.508575 -0.498400 -4.526000 12.561500 2.181683 0.972821 -3.437271 2.995931 0.645807 -0.408197 2.931224 -1.613123 13.549773 2.399800 -1.746100 10.269900 -90.383491 4.146307 24.651933 13.049545 -23.246736 -2.788013 0.097650 0.574009 3.174079 -7.125000 0.000000 0.000000 81.042480 3.730387 17.934279 -17.191543 26.243246 -4.483552 0.363406 -0.046465 -13.484342 7.125000 0.000000 0.000000 
9.310130 17.835997 -9.256234 -173.991602 -0.161912 -175.967675 -8.193683 -1.743649 -15.499199 1.448034 10.167169 27.596895 0.846726 -9.299097 -2.612393 0.532300 4.675300 12.984800 23.559978 -0.018569 -6.513262 -0.996862 -9.185715 23.592271 -1.070685 4.143365 -8.673935 -0.538200 -4.700700 13.056900 2.101899 0.983852 -3.464485 2.905798 0.641450 -0.354708 3.000646 -1.701153 13.629570 2.420100 -1.780400 10.325400 -90.199923 4.222557 24.765835 12.860068 -22.982434 -2.718559 0.100539 0.568655 2.864034 -7.125000 0.000000 0.000000 81.361471 3.322543 17.482139 -16.880911 25.876864 -4.346204 0.361235 -0.083280 -13.565551 7.125000 0.000000 0.000000 
9.288187 17.834076 -9.308006 -174.370211 -0.156562 -175.840553 -8.703647 -1.552509 -15.475896 1.430663 10.147389 27.514104 0.864096 -9.580475 -2.844581 0.472900 4.410300 12.233800 23.013817 -0.223392 -6.663761 -1.039310 -9.273929 23.865028 -1.111053 4.363296 -8.833924 -0.554800 -4.771100 13.256900 2.042525 0.933062 -3.516257 2.895882 0.607548 -0.394971 2.978356 -1.594035 13.619696 2.392200 -1.724500 10.292900 -90.079381 4.410665 24.922251 12.700609 -22.767654 -2.662798 0.116500 0.560326 2.548608 -7.125000 0.000000 0.000000 81.633722 2.827766 17.526552 -17.237127 26.308937 -4.501969 0.385663 0.007076 -13.373466 7.125000 0.000000 0.000000 
9.270795 17.834581 -9.354216 -174.572720 -0.088541 -175.745966 -8.976808 -1.427341 -15.433665 1.414188 10.127465 27.428641 0.888861 -9.750506 -3.254777 0.349400 3.798100 10.509400 22.754595 0.145840 -6.599991 -1.078676 -9.373909 24.164794 -1.089123 4.059584 -9.194417 -0.509000 -4.573400 12.695600 2.032717 0.899245 -3.527131 2.992830 0.589562 -0.342844 2.979876 -1.520301 13.463563 2.413100 -1.684500 10.177900 -90.047099 4.500808 25.359200 12.644431 -22.699866 -2.642604 0.128245 0.554677 1.744114 -7.125000 0.000000 0.000000 81.754951 2.561355 17.567422 -17.161303 26.217243 -4.464655 0.398119 0.029572 -13.287415 7.125000 0.000000 0.000000 
9.261088 17.826998 -9.396686 -174.610233 0.004413 -175.704421 -9.058048 -1.198555 -15.402511 1.416533 10.132104 27.424514 0.917848 -9.958948 -3.636669 0.201000 2.886900 7.963900 22.738431 0.725383 -6.408320 -1.107436 -9.456539 24.405940 -1.047579 3.629156 -9.551970 -0.497800 -4.523400 12.554100 2.031734 0.901009 -3.505322 3.056767 0.590377 -0.203157 2.968800 -1.551028 13.453742 2.407400 -1.695400 10.200400 -90.006147 4.380630 25.432477 12.520049 -22.531310 -2.597540 0.124333 0.552469 1.416673 -7.125000 0.000000 0.000000 81.846218 2.461671 17.721827 -16.882363 25.871629 -4.333646 0.407212 0.026932 -13.395812 7.125000 0.000000 0.000000 
9.245314 17.813953 -9.442997 -174.576542 0.064485 -175.755760 -9.112549 -0.869158 -15.308683 1.433562 10.153951 27.484587 0.920137 -10.262760 -3.445696 0.326900 3.675100 10.164300 22.732916 0.763964 -6.263853 -1.139660 -9.533549 24.626706 -1.051252 3.606126 -9.688133 -0.511900 -4.586200 12.732000 2.017874 0.876386 -3.470769 2.974046 0.576506 -0.057873 2.902954 -1.558560 13.530536 2.334000 -1.686100 10.297800 -89.927495 4.284959 25.029318 12.432936 -22.408625 -2.568417 0.118265 0.552701 1.814787 -7.125000 0.000000 0.000000 81.966274 2.308206 17.892692 -16.604199 25.531097 -4.206336 0.402675 0.008397 -13.296833 7.125000 0.000000 0.000000 
9.221652 17.802224 -9.489713 -174.513066 0.164753 -175.900532 -9.146996 -0.738109 -15.058169 1.451360 10.185670 27.570200 0.915502 -10.413957 -3.292786 0.555100 4.772400 13.260600 22.722059 0.505058 -6.133055 -1.177642 -9.617170 24.864797 -1.071823 3.740226 -9.724518 -0.471600 -4.404300 12.217100 2.022351 0.806074 -3.466442 2.889337 0.541175 -0.111703 2.771925 -1.437263 13.519769 2.240000 -1.627500 10.279200 -89.905405 4.453934 24.200385 12.521666 -22.536020 -2.608857 0.140449 0.551045 2.928658 -7.125000 0.000000 0.000000 82.073633 1.930666 17.941040 -16.322797 25.199035 -4.083590 0.367197 -0.035821 -12.775168 7.125000 0.000000 0.000000 
9.202339 17.795752 -9.533395 -174.658677 0.293969 -176.015977 -9.395837 -0.560639 -14.868283 1.464494 10.216893 27.645765 0.923463 -10.532061 -3.468760 0.574500 4.854000 13.492500 22.520584 0.438971 -6.012062 -1.217689 -9.706158 25.128100 -1.068650 3.691613 -9.790230 -0.431200 -4.214000 11.679500 1.998321 0.779201 -3.525758 2.859657 0.523865 -0.411783 2.519572 -1.093266 13.554545 2.185900 -0.886900 10.247800 -89.849029 4.732839 23.621536 12.589729 -22.628536 -2.641004 0.177988 0.537887 3.712941 -7.125000 0.000000 0.000000 82.224091 1.372601 18.061639 -16.064001 24.883993 -3.970768 0.340131 -0.070337 -12.360312 7.125000 0.000000 0.000000 
9.187879 17.790899 -9.573741 -174.790291 0.386124 -176.043481 -9.618557 -0.283671 -14.772998 1.464959 10.221281 27.638532 0.930709 -10.729467 -3.527609 0.626200 5.063600 14.089900 22.379995 0.721785 -5.896724 -1.269490 -9.827760 25.490880 -1.037208 3.400778 -9.978045 -0.420800 -4.163700 11.537600 1.961052 0.803372 -3.477105 2.841941 0.533023 -0.254211 2.573893 -1.197726 13.451582 2.213600 -0.935600 10.199000 -89.710802 4.598965 23.978508 12.592014 -22.628224 -2.636572 0.163091 0.539286 2.848165 -7.125000 0.000000 0.000000 82.373365 1.313180 18.032143 -15.733835 24.473181 -3.828209 0.337556 -0.094855 -11.946296 7.125000 0.000000 0.000000 
9.168060 17.786349 -9.613480 -174.821329 0.431545 -176.041769 -9.725429 -0.199439 -14.614899 1.449040 10.195659 27.542097 0.940938 -10.874627 -3.638467 0.640600 5.120400 14.252400 22.327637 0.940572 -5.914628 -1.348008 -10.000463 26.015107 -1.009753 3.089143 -10.306719 -0.357900 -3.843600 10.637000 1.959705 0.775894 -3.461006 2.849422 0.518279 -0.180040 2.595945 -1.178297 13.458987 2.241400 -0.934600 10.235700 -89.678331 4.552670 24.104044 12.661342 -22.720140 -2.658326 0.135697 0.553303 2.330886 -7.125000 0.000000 0.000000 82.419742 1.166621 18.008421 -15.479838 24.153368 -3.719202 0.333634 -0.105585 -11.419111 7.125000 0.000000 0.000000 
9.139849 17.784023 -9.654837 -175.051175 0.472214 -176.017573 -10.086142 -0.110603 -14.456955 1.424841 10.163597 27.417859 0.950620 -11.014400 -3.825547 0.615000 5.019000 13.962600 21.983361 1.033974 -6.035203 -1.452638 -10.212454 26.671137 -1.006927 2.979920 -10.534915 -0.340200 -3.748100 10.369100 1.923260 0.735285 -3.453762 2.795354 0.494125 -0.105000 2.557003 -1.116139 13.494172 2.231200 -0.913500 10.278100 -89.698607 4.419604 23.636654 12.710812 -22.781960 -2.676363 0.153549 0.539293 3.038068 -7.125000 0.000000 0.000000 82.452243 0.920177 18.149649 -15.346904 23.992742 -3.662617 0.334972 -0.104490 -11.344526 7.125000 0.000000 0.000000 
